<mxfile host="app.diagrams.net" modified="2020-08-14T21:36:11.255Z" agent="5.0 (Windows NT 10.0; Win64; x64) AppleWebKit/537.36 (KHTML, like Gecko) Chrome/84.0.4147.125 Safari/537.36" etag="XBoB6XVrdNYFICB4aOQP" version="13.6.2" type="github">
  <diagram id="C5RBs43oDa-KdzZeNtuy" name="Page-1">
    <mxGraphModel dx="1102" dy="624" grid="1" gridSize="10" guides="1" tooltips="1" connect="1" arrows="1" fold="1" page="1" pageScale="1" pageWidth="827" pageHeight="1169" math="0" shadow="0">
      <root>
        <mxCell id="WIyWlLk6GJQsqaUBKTNV-0" />
        <mxCell id="WIyWlLk6GJQsqaUBKTNV-1" parent="WIyWlLk6GJQsqaUBKTNV-0" />
        <mxCell id="8k8rkvcV48vT9HthDkna-10" value="&lt;table border=&quot;1&quot; width=&quot;100%&quot; cellpadding=&quot;4&quot; style=&quot;width: 100% ; height: 100% ; border-collapse: collapse&quot;&gt;&lt;tbody&gt;&lt;tr&gt;&lt;th align=&quot;center&quot;&gt;Universidad&lt;/th&gt;&lt;/tr&gt;&lt;tr&gt;&lt;td&gt;-nivel: String&lt;br&gt;-tipo: String&lt;/td&gt;&lt;/tr&gt;&lt;tr&gt;&lt;td&gt;-ofreceServicios()&lt;br&gt;-emplea()&lt;/td&gt;&lt;/tr&gt;&lt;/tbody&gt;&lt;/table&gt;" style="text;html=1;strokeColor=none;fillColor=none;overflow=fill;" vertex="1" parent="WIyWlLk6GJQsqaUBKTNV-1">
          <mxGeometry x="90" y="30" width="160" height="140" as="geometry" />
        </mxCell>
        <mxCell id="8k8rkvcV48vT9HthDkna-21" style="edgeStyle=orthogonalEdgeStyle;rounded=0;orthogonalLoop=1;jettySize=auto;html=1;exitX=0.5;exitY=0;exitDx=0;exitDy=0;entryX=1.006;entryY=0.6;entryDx=0;entryDy=0;entryPerimeter=0;endArrow=diamond;endFill=1;" edge="1" parent="WIyWlLk6GJQsqaUBKTNV-1" source="8k8rkvcV48vT9HthDkna-11" target="8k8rkvcV48vT9HthDkna-10">
          <mxGeometry relative="1" as="geometry" />
        </mxCell>
        <mxCell id="8k8rkvcV48vT9HthDkna-11" value="&lt;table border=&quot;1&quot; width=&quot;100%&quot; cellpadding=&quot;4&quot; style=&quot;width: 100% ; height: 100% ; border-collapse: collapse&quot;&gt;&lt;tbody&gt;&lt;tr&gt;&lt;th align=&quot;center&quot;&gt;Usuario&lt;/th&gt;&lt;/tr&gt;&lt;tr&gt;&lt;td&gt;-ID:int&lt;br&gt;-matricula:string&lt;br&gt;-nombre:string&lt;br&gt;-apellidoPaterno::string&lt;br&gt;-apellidoMaterno:string&lt;br&gt;-fechadeRegistro:date&lt;br&gt;-correo:string&lt;br&gt;-foto:img&lt;/td&gt;&lt;/tr&gt;&lt;tr&gt;&lt;td&gt;+verificarRegistro()&lt;br&gt;&lt;/td&gt;&lt;/tr&gt;&lt;/tbody&gt;&lt;/table&gt;" style="text;html=1;strokeColor=none;fillColor=none;overflow=fill;" vertex="1" parent="WIyWlLk6GJQsqaUBKTNV-1">
          <mxGeometry x="331" y="210" width="160" height="170" as="geometry" />
        </mxCell>
        <mxCell id="8k8rkvcV48vT9HthDkna-16" style="edgeStyle=orthogonalEdgeStyle;rounded=0;orthogonalLoop=1;jettySize=auto;html=1;exitX=0.5;exitY=0;exitDx=0;exitDy=0;entryX=0.25;entryY=1;entryDx=0;entryDy=0;endArrow=block;endFill=0;" edge="1" parent="WIyWlLk6GJQsqaUBKTNV-1" source="8k8rkvcV48vT9HthDkna-12" target="8k8rkvcV48vT9HthDkna-11">
          <mxGeometry relative="1" as="geometry" />
        </mxCell>
        <mxCell id="8k8rkvcV48vT9HthDkna-19" style="edgeStyle=orthogonalEdgeStyle;rounded=0;orthogonalLoop=1;jettySize=auto;html=1;exitX=1;exitY=0.25;exitDx=0;exitDy=0;entryX=-0.006;entryY=0.103;entryDx=0;entryDy=0;entryPerimeter=0;endArrow=diamond;endFill=0;" edge="1" parent="WIyWlLk6GJQsqaUBKTNV-1" source="8k8rkvcV48vT9HthDkna-12">
          <mxGeometry relative="1" as="geometry">
            <mxPoint x="349.03999999999996" y="463.7550000000001" as="targetPoint" />
          </mxGeometry>
        </mxCell>
        <mxCell id="8k8rkvcV48vT9HthDkna-12" value="&lt;table border=&quot;1&quot; width=&quot;100%&quot; cellpadding=&quot;4&quot; style=&quot;width: 100% ; height: 100% ; border-collapse: collapse&quot;&gt;&lt;tbody&gt;&lt;tr&gt;&lt;th align=&quot;center&quot;&gt;&lt;b&gt;Alumnos&lt;/b&gt;&lt;/th&gt;&lt;/tr&gt;&lt;tr&gt;&lt;td&gt;-nivel:int&lt;br&gt;-especialidad:String&lt;br&gt;&lt;/td&gt;&lt;/tr&gt;&lt;tr&gt;&lt;td&gt;+ingresaraCursos()&lt;/td&gt;&lt;/tr&gt;&lt;/tbody&gt;&lt;/table&gt;" style="text;html=1;strokeColor=none;fillColor=none;overflow=fill;" vertex="1" parent="WIyWlLk6GJQsqaUBKTNV-1">
          <mxGeometry x="130" y="420" width="160" height="140" as="geometry" />
        </mxCell>
        <mxCell id="8k8rkvcV48vT9HthDkna-15" style="edgeStyle=orthogonalEdgeStyle;rounded=0;orthogonalLoop=1;jettySize=auto;html=1;entryX=0.75;entryY=1;entryDx=0;entryDy=0;endArrow=block;endFill=0;" edge="1" parent="WIyWlLk6GJQsqaUBKTNV-1" source="8k8rkvcV48vT9HthDkna-13" target="8k8rkvcV48vT9HthDkna-11">
          <mxGeometry relative="1" as="geometry">
            <Array as="points">
              <mxPoint x="650" y="410" />
              <mxPoint x="450" y="410" />
            </Array>
          </mxGeometry>
        </mxCell>
        <mxCell id="8k8rkvcV48vT9HthDkna-20" style="edgeStyle=orthogonalEdgeStyle;rounded=0;orthogonalLoop=1;jettySize=auto;html=1;exitX=0;exitY=0.25;exitDx=0;exitDy=0;endArrow=diamond;endFill=0;" edge="1" parent="WIyWlLk6GJQsqaUBKTNV-1" source="8k8rkvcV48vT9HthDkna-13">
          <mxGeometry relative="1" as="geometry">
            <mxPoint x="510" y="464" as="targetPoint" />
          </mxGeometry>
        </mxCell>
        <mxCell id="8k8rkvcV48vT9HthDkna-13" value="&lt;table border=&quot;1&quot; width=&quot;100%&quot; cellpadding=&quot;4&quot; style=&quot;width: 100% ; height: 100% ; border-collapse: collapse&quot;&gt;&lt;tbody&gt;&lt;tr&gt;&lt;th align=&quot;center&quot;&gt;Profesores&lt;br&gt;&lt;/th&gt;&lt;/tr&gt;&lt;tr&gt;&lt;td&gt;-profecion:string&lt;br&gt;-especialidad:string&lt;/td&gt;&lt;/tr&gt;&lt;tr&gt;&lt;td align=&quot;center&quot;&gt;+administrarCursos()&lt;/td&gt;&lt;/tr&gt;&lt;/tbody&gt;&lt;/table&gt;" style="text;html=1;strokeColor=none;fillColor=none;overflow=fill;" vertex="1" parent="WIyWlLk6GJQsqaUBKTNV-1">
          <mxGeometry x="570" y="420" width="160" height="140" as="geometry" />
        </mxCell>
        <mxCell id="8k8rkvcV48vT9HthDkna-22" value="&lt;p style=&quot;margin: 0px ; margin-top: 4px ; text-align: center&quot;&gt;&lt;b&gt;Cursos&lt;/b&gt;&lt;/p&gt;&lt;hr size=&quot;1&quot;&gt;&lt;div style=&quot;height: 2px&quot;&gt;-ID:int&lt;br&gt;-Nivel:string&lt;br&gt;-Nombre:string&lt;br&gt;&lt;/div&gt;" style="verticalAlign=top;align=left;overflow=fill;fontSize=12;fontFamily=Helvetica;html=1;" vertex="1" parent="WIyWlLk6GJQsqaUBKTNV-1">
          <mxGeometry x="350" y="440" width="160" height="80" as="geometry" />
        </mxCell>
      </root>
    </mxGraphModel>
  </diagram>
</mxfile>
